<svg width="48" height="48" viewBox="0 0 48 48" fill="none" xmlns="http://www.w3.org/2000/svg">
<rect width="48" height="48" rx="24" fill="white"/>
<path d="M17.4756 13.6719H24.5361C26.1377 13.6719 27.4902 13.916 28.5938 14.4043C29.707 14.8926 30.5518 15.6152 31.1279 16.5723C31.7139 17.5195 32.0068 18.6865 32.0068 20.0732C32.0068 21.0498 31.8066 21.9434 31.4062 22.7539C31.0156 23.5547 30.4492 24.2383 29.707 24.8047C28.9746 25.3613 28.0957 25.7764 27.0703 26.0498L26.2793 26.3574H19.6436L19.6143 24.0576H24.624C25.6396 24.0576 26.4844 23.8818 27.1582 23.5303C27.832 23.1689 28.3398 22.6855 28.6816 22.0801C29.0234 21.4746 29.1943 20.8057 29.1943 20.0732C29.1943 19.2529 29.0332 18.5352 28.7109 17.9199C28.3887 17.3047 27.8809 16.8311 27.1875 16.499C26.5039 16.1572 25.6201 15.9863 24.5361 15.9863H20.3027V35H17.4756V13.6719ZM29.9414 35L24.7559 25.332L27.7002 25.3174L32.959 34.8242V35H29.9414Z" fill="black"/>
</svg>
